<svg width="105" height="101" viewBox="0 0 105 101" xmlns="http://www.w3.org/2000/svg" xmlns:xlink="http://www.w3.org/1999/xlink">
    <path id="Path" fill="#3d72a3" fill-rule="evenodd" stroke="none" d="M 28.840302 17.824631 C 29.888992 16.233658 31.067657 14.669579 32.34491 13.253395 C 34.711197 10.631653 37.185043 8.771797 39.533401 7.983032 C 41.689056 7.261497 43.880554 7.378014 46.278214 9.013809 C 48.371109 10.447914 50.764297 13.141357 53.238129 17.824631 L 28.840302 17.824631 Z M 20.146004 17.824631 C 21.826599 14.642685 24.112221 11.169449 26.837029 8.144371 C 29.646988 5.03862 33.151611 2.161438 37.189529 0.803513 C 41.424637 -0.612671 46.036209 -0.272072 50.455063 2.753006 C 54.569168 5.567451 58.262009 10.524094 61.560455 17.829109 L 72.71965 17.829109 L 81.893478 85.909073 L -0.227348 85.909073 L 8.740334 17.833588 L 20.141518 17.833588 Z"/>
    <path id="path1" fill="#ffffff" fill-rule="evenodd" stroke="none" d="M 66.723267 40.519436 C 67.478394 39.024616 68.336441 37.584042 69.291229 36.208138 C 71.030075 33.738777 72.710678 32.201591 74.086533 31.605537 C 74.559509 31.37648 75.089615 31.292297 75.610275 31.363533 C 76.031555 31.430756 76.650009 31.663795 77.461166 32.376373 C 78.872879 33.613289 80.602783 36.078163 82.426788 40.519436 L 66.723267 40.519436 Z M 58.477127 40.519436 C 59.682678 37.660168 61.291565 34.549942 63.214172 31.81617 C 65.239853 28.934509 67.906403 26.048355 71.173492 24.645615 C 72.876495 23.910629 74.78566 23.565544 76.806854 23.897186 C 78.823578 24.228821 80.683456 25.196854 82.350601 26.657845 C 85.433945 29.360252 88.087051 33.953896 90.430923 40.519436 L 98.452988 40.519436 L 105.35466 101.034477 L 43.499619 101.034477 L 50.253387 40.519436 L 58.481613 40.519436 Z M 51.857803 93.469536 L 56.922012 48.08437 L 91.797821 48.08437 L 96.978546 93.469536 L 51.857803 93.469536 Z"/>
</svg>
