<svg width="101" height="95" viewBox="0 0 101 95" xmlns="http://www.w3.org/2000/svg" xmlns:xlink="http://www.w3.org/1999/xlink">
    <path id="Path" fill="#3d72a3" fill-rule="evenodd" stroke="none" d="M 27.45846 16.798683 C 28.464111 15.279785 29.58313 13.839073 30.805952 12.488861 C 33.063198 10.017105 35.424747 8.265625 37.666248 7.523697 C 39.724731 6.842789 41.812729 6.952995 44.1054 8.499809 C 46.10091 9.845886 48.387676 12.384552 50.749222 16.798683 L 27.45846 16.798683 Z M 19.153681 16.798683 C 20.76347 13.801483 22.943966 10.526802 25.545605 7.679169 C 28.225962 4.74691 31.571489 2.033104 35.42868 0.757866 C 39.468895 -0.578377 43.873184 -0.25563 48.09248 2.592003 C 52.020523 5.242844 55.545135 9.912796 58.693867 16.798683 L 69.350357 16.798683 L 78.10186 80.936356 L -0.289732 80.936356 L 8.27088 16.798683 L 19.153681 16.798683 Z"/>
    <path id="path1" fill="#112133" fill-rule="evenodd" stroke="none" d="M 63.621635 38.178558 C 64.355675 36.757698 65.184189 35.36438 66.073708 34.112755 C 67.732689 31.786636 69.336578 30.338211 70.653137 29.781281 C 71.24353 29.529381 71.70797 29.486092 72.105492 29.551025 C 72.506958 29.615967 73.097343 29.832443 73.874687 30.505486 C 75.220772 31.670532 76.871887 33.992722 78.611557 38.178558 L 63.621635 38.178558 Z M 55.749805 38.178558 C 56.899094 35.482452 58.436066 32.554138 60.270203 29.978081 C 62.204704 27.262291 64.749268 24.544548 67.868477 23.220108 C 69.494011 22.531326 71.320282 22.202675 73.248878 22.517555 C 75.175507 22.830452 76.948639 23.737686 78.538742 25.117218 C 81.480835 27.665718 84.013603 31.993271 86.253143 38.17659 L 93.908493 38.17659 L 100.501144 95.188293 L 41.45063 95.188293 L 47.901596 38.17659 L 55.747837 38.17659 Z M 49.430695 88.064293 L 54.265968 45.304527 L 87.55986 45.304527 L 92.503365 88.064293 L 49.42873 88.064293 Z"/>
</svg>
