<svg width="230" height="27" viewBox="0 0 230 27" xmlns="http://www.w3.org/2000/svg" xmlns:xlink="http://www.w3.org/1999/xlink">
    <path id="Path" fill="#3d72a3" fill-rule="evenodd" stroke="none" d="M 6.486 3.978001 C 6.72 3.622999 6.983 3.274 7.268 2.958 C 7.796 2.372999 8.348 1.958 8.872 1.782 C 9.353 1.621 9.842 1.646999 10.377 2.012001 C 10.844 2.332001 11.378 2.933001 11.93 3.978001 L 6.486 3.978001 Z M 4.546 3.978001 C 4.921 3.268 5.431 2.493 6.039 1.818001 C 6.666 1.125 7.448 0.483 8.349 0.18 C 9.294 -0.136 10.323 -0.059999 11.309 0.615 C 12.227 1.243 13.051 2.348999 13.787 3.979 L 16.277 3.979 L 18.323999 19.17 L -0 19.17 L 2.001 3.98 L 4.545 3.98 Z"/>
    <path id="path1" fill="#ffffff" fill-rule="evenodd" stroke="none" d="M 14.939 9.042 C 15.107496 8.708454 15.298957 8.387012 15.512 8.08 C 15.9 7.528999 16.275 7.186001 16.582001 7.052999 C 16.687536 7.00189 16.805822 6.983105 16.922001 6.999001 C 17.016001 7.014 17.153999 7.066 17.334999 7.225 C 17.65 7.500999 18.035999 8.050999 18.443001 9.042 L 14.939 9.042 Z M 13.099 9.042 C 13.368 8.403999 13.727 7.709999 14.156 7.1 C 14.608 6.457001 15.203 5.813 15.932 5.5 C 16.312 5.336 16.738001 5.258999 17.188999 5.333 C 17.639 5.407 18.054001 5.623001 18.426001 5.948999 C 19.114 6.552 19.705999 7.577 20.229 9.042 L 22.018999 9.042 L 23.559 22.545 L 9.757 22.545 L 11.264 9.042 L 13.1 9.042 Z M 11.622 20.857 L 12.752 10.73 L 20.534 10.73 L 21.690001 20.857 L 11.622 20.857 Z"/>
    <path id="path2" fill="#ffffff" stroke="none" d="M 163.209 14.703 C 163.263 14.647 163.317001 14.537 163.371994 14.426 C 163.479996 14.204 163.587997 13.926 163.643005 13.649 C 163.697006 13.372 163.751007 13.039 163.804993 12.761 C 163.914001 12.151 164.076004 11.596 164.184998 10.986 L 164.835007 7.823999 C 164.944 7.269001 164.889008 6.659 164.835007 6.104 C 164.781006 5.66 164.889008 5.493999 165.322998 5.493999 C 166.516006 5.493999 167.761993 5.438 168.955002 5.549 C 169.171997 5.549 169.550995 5.938 169.660004 6.159 C 170.147003 8.379 170.580994 10.653 171.069 12.928 C 171.123001 13.26 171.231995 13.593 171.285995 13.926 C 171.339996 14.148 171.393997 14.315 171.393997 14.536 C 171.393997 14.647 171.447998 14.758 171.610992 14.758 C 171.718994 14.758 171.718994 14.648 171.718994 14.537 C 171.774002 14.425 171.774002 14.259 171.828003 14.148 C 171.882004 13.871 171.936005 13.593 171.990997 13.371 C 172.098999 12.817 172.261993 12.261 172.369995 11.707 C 172.748993 9.931999 173.128998 8.157 173.453995 6.437 C 173.563004 5.771 173.888 5.493999 174.591995 5.549 C 175.188995 5.605 175.839005 5.549 176.544006 5.549 C 176.164001 7.436001 175.839005 9.098999 175.460007 10.709 C 174.755005 14.149 173.996002 17.532 173.291 21.027 C 173.128998 21.804001 172.858002 22.247 171.990997 22.136999 C 170.960999 22.025999 169.985001 22.080999 169.009003 22.136999 C 168.466995 22.191999 168.141998 22.025999 168.087997 21.416 C 167.707993 19.528999 167.328995 17.643 166.895004 15.756 L 166.731995 15.091 C 166.677994 14.981 166.677994 14.869 166.623993 14.758 C 166.623993 14.703 166.570007 14.537 166.460999 14.537 C 166.298996 14.537 166.352997 14.703 166.298996 14.814 C 166.298996 14.924 166.244995 14.98 166.244995 15.091 C 166.190002 15.258 166.190002 15.424 166.136002 15.646 C 166.082001 15.979 165.973999 16.367001 165.919006 16.700001 L 165.593994 18.198 C 165.376999 19.308001 165.160004 20.472 164.889008 21.582001 C 164.835007 21.804001 164.509995 22.136999 164.292999 22.136999 C 162.992599 22.192499 161.690414 22.192499 160.389999 22.136999 C 160.173004 22.136999 159.848007 21.858999 159.794006 21.636999 C 159.089005 18.531 158.438995 15.424 157.787994 12.317 C 157.416519 10.443928 157.01915 8.576082 156.595993 6.714001 C 156.378998 5.66 156.378998 5.549 157.462997 5.549 L 160.444 5.549 C 160.985992 5.549 161.257996 5.66 161.365997 6.326 C 161.582993 7.436001 161.800003 8.49 162.016006 9.598999 L 162.667007 12.928 C 162.774994 13.538 162.938004 14.093 163.046005 14.703 L 163.046005 14.758 C 163.154999 14.703 163.209 14.703 163.209 14.703 Z M 57.342999 13.76 C 57.342999 16.200001 57.289001 18.642 57.342999 21.083 C 57.342999 21.858999 57.071999 22.136999 56.313 22.136999 C 55.374153 22.081488 54.432846 22.081488 53.493999 22.136999 C 52.952 22.191999 52.790001 21.915001 52.790001 21.360001 C 52.844002 19.584999 52.736 17.809999 52.844002 16.034 C 52.844002 15.369 52.681 15.091 51.977001 15.091 C 51.400002 15.146559 50.819 15.146559 50.242001 15.091 C 49.536999 15.036 49.375 15.368 49.429001 16.034 C 49.483002 17.754 49.429001 19.474001 49.483002 21.194 C 49.483002 21.858999 49.32 22.136999 48.616001 22.136999 C 47.622776 22.081469 46.627224 22.081469 45.633999 22.136999 C 45.146999 22.136999 44.93 22.025999 44.93 21.415001 L 44.93 6.215 C 44.93 5.66 45.146999 5.493999 45.633999 5.493999 C 46.664001 5.549 47.694 5.549 48.669998 5.493999 C 49.212002 5.493999 49.429001 5.716 49.375 6.326 C 49.32 8.101 49.375 9.875999 49.32 11.652 C 49.32 12.372 49.483002 12.595 50.188 12.539 C 50.764671 12.48361 51.345325 12.48361 51.922001 12.539 C 52.626999 12.595 52.790001 12.262 52.736 11.596 C 52.681 9.875999 52.790001 8.156 52.681 6.436001 C 52.681 5.771 52.897999 5.493999 53.603001 5.493999 C 54.577999 5.549 55.554001 5.549 56.476002 5.493999 C 57.071999 5.438 57.289001 5.716 57.289001 6.326 C 57.342999 8.821999 57.342999 11.319 57.342999 13.76 Z M 141.240997 13.815 C 141.240997 11.375 141.294998 8.932999 141.240997 6.437 C 141.240997 5.716 141.457993 5.493999 142.162994 5.493999 C 144.330994 5.549 146.552994 5.382999 148.722 5.604 C 151.541 5.882 153.979996 7.434999 155.009995 10.209 C 155.389008 11.263 155.281006 12.373 155.335007 13.427 C 155.389008 15.202 155.389008 17.033001 154.468002 18.587 C 153.656433 19.866253 152.461105 20.856108 151.052994 21.415001 C 150.727005 21.525999 150.455994 21.636999 150.130997 21.747999 C 149.210007 21.969999 148.233994 22.025999 147.257996 22.080999 C 145.686005 22.136999 144.059998 22.080999 142.488007 22.080999 C 141.294998 22.080999 141.294998 22.080999 141.294998 20.861 C 141.240997 18.475 141.240997 16.145 141.240997 13.815 Z M 145.903 13.76 C 145.903 15.147 145.848999 16.534 145.848999 17.92 C 145.848999 18.309 145.794998 19.474001 146.337006 19.639999 C 148.233994 20.25 150.130997 19.084999 150.294006 17.143999 C 150.511002 15.147 150.565002 13.094 150.348007 11.041 C 150.130997 8.545 149.100998 7.823999 146.608002 7.879 C 145.957001 7.879 145.740005 8.101 145.740005 8.767 C 145.903 10.375999 145.903 12.04 145.903 13.76 Z M 74.025002 13.926 C 74.025002 15.369 74.025002 16.811001 73.375 18.142 C 72.073997 20.805 69.038002 22.469999 66.219002 22.082001 C 63.726002 21.747999 61.666 20.583 60.528 18.087 C 60.040001 17.087999 59.985001 15.979 59.985001 14.869 C 59.931 12.817 59.823002 10.709 60.853001 8.878 C 61.666 7.546 62.912998 6.492001 64.375999 5.993 C 66.870003 5.105999 69.254997 5.382999 71.422997 7.047001 C 73.157997 8.379 74.025002 10.264999 74.025002 12.539 L 74.025002 13.926 Z M 69.635002 13.926 C 69.635002 12.706 69.525002 11.486 69.308998 10.264999 C 69.092003 8.932999 68.170998 8.045 67.086998 7.99 C 66.001999 7.934999 65.135002 8.545 64.700996 9.931999 C 63.997002 12.428 64.158997 15.036 64.593002 17.587999 C 64.755997 18.698 65.459999 19.639999 66.653 19.806999 C 67.900002 19.973 68.983002 19.086 69.254997 17.587 C 69.525002 16.312 69.635002 15.147 69.635002 13.927 Z M 104.867996 10.93 C 103.349998 10.93 101.995003 10.986 100.639999 10.875 C 100.206001 10.875 100.042999 9.764999 99.934998 9.487999 C 99.664001 8.823 99.176003 8.268 98.525002 7.99 C 97.008003 7.436001 95.489998 8.49 95.165001 10.32 C 94.731003 12.706 94.785004 15.036 95.165001 17.421 C 95.382004 18.864 96.627998 19.862 97.984001 19.695999 C 99.230003 19.584999 100.314003 18.198 100.314003 16.865999 C 100.314003 16.312 99.988998 16.312 99.610001 16.367001 C 98.959999 16.423 98.796997 16.09 98.796997 15.48 C 98.850998 13.205 98.580002 13.594 100.584999 13.594 C 101.778 13.538 103.025002 13.538 104.217003 13.649 C 104.487999 13.649 104.867996 13.926 104.867996 14.093 C 104.921997 15.813 105.029999 17.533001 103.945999 19.030001 C 102.32 21.305 100.042999 22.302999 97.333 22.191999 C 95.457191 22.124126 93.660332 21.419844 92.237999 20.195 C 91.531067 19.591379 90.974083 18.831732 90.611 17.976 C 90.232002 17.033001 90.232002 16.09 90.232002 15.036 C 90.232002 13.538 90.178001 11.985 90.448997 10.486 C 90.882004 8.156 92.670998 6.826 94.838997 5.993 C 97.766998 4.882999 101.399002 5.716 103.458 8.046 C 104.232544 8.826393 104.728134 9.84042 104.867996 10.931 Z M 30.51 16.589001 C 31.486 16.534 32.408001 16.645 32.625 17.754 C 33.005001 19.306999 35.009998 20.084 36.418999 19.363001 C 37.775002 18.642 37.882999 17.087999 36.528 16.367001 C 35.444 15.812 34.305 15.479 33.167 15.036 C 32.299999 14.703 31.431999 14.37 30.673 13.926 C 28.18 12.317 27.962999 9.043999 30.24 7.103001 C 32.896 4.827999 37.015999 4.827999 39.672001 7.047001 C 40.592999 7.768 41.082001 8.767 41.298 9.931999 C 41.405998 10.431999 41.243999 10.764 40.756001 10.819 C 40.050999 10.875 39.130001 10.93 38.424999 10.819 C 37.882999 10.764 37.612 10.32 37.557999 9.764999 C 37.286999 8.212 36.094002 7.546 34.576 7.879 C 33.763 8.046 33.221001 8.545 33.058998 9.376999 C 32.950001 10.209 33.275002 10.875 33.98 11.207 C 34.902 11.652 35.876999 11.929 36.853001 12.207 C 38.153999 12.595 39.455002 13.094 40.431 14.148 C 41.894001 15.701 42.056999 17.754 40.756001 19.474001 C 39.183998 21.525999 36.960999 22.247 34.467999 22.025999 C 31.92 21.747999 29.860001 20.639 28.83 18.086 C 28.722 17.865 28.722 17.643 28.614 17.421 C 28.504999 16.865999 28.775999 16.754999 29.264 16.700001 C 29.643999 16.700001 30.077 16.645 30.511 16.589001 Z M 76.735001 13.87 C 76.735001 11.43 76.789001 8.989 76.681 6.548 C 76.625999 5.66 76.950996 5.438 77.710999 5.493999 C 79.716003 5.549 81.721001 5.549 83.727997 5.549 C 86.763 5.549 88.226997 8.157 88.010002 10.653 C 87.847 12.873 85.625 15.091 83.510002 15.203 C 82.933334 15.258489 82.352669 15.258489 81.776001 15.203 C 81.234001 15.147 81.070999 15.424 81.070999 15.979 C 81.125999 17.754 81.070999 19.584999 81.125999 21.360001 C 81.125999 21.969999 80.962997 22.191999 80.365997 22.136999 C 79.40947 22.081528 78.450531 22.081528 77.494003 22.136999 C 76.897003 22.191999 76.734001 21.915001 76.734001 21.305 L 76.734001 13.87 Z M 81.125 10.487 C 81.125 10.931 81.070999 11.43 81.18 11.874 C 81.234001 12.095 81.342003 12.373 81.504997 12.484 C 81.992996 12.761 83.293999 12.262 83.781998 11.707 C 84.269997 11.097 84.431999 10.431 84.107002 9.709999 C 83.726997 8.932999 83.023003 8.545 82.209999 8.49 C 81.342003 8.379 81.18 8.545 81.18 9.432999 C 81.125999 9.709999 81.125999 10.098 81.125999 10.487 Z M 190.151001 12.373 L 190.151001 17.865 C 190.151001 19.195999 190.151001 19.195999 191.343002 19.195999 C 192.535995 19.195999 193.673996 19.252001 194.867004 19.195999 C 195.354004 19.195999 195.516998 19.363001 195.516998 19.917999 C 195.625 22.136999 195.625 22.136999 193.565994 22.136999 C 191.235001 22.136999 188.904007 22.080999 186.572998 22.136999 C 185.921997 22.136999 185.759995 21.915001 185.759995 21.249001 C 185.813995 16.312 185.813995 11.319 185.759995 6.381001 C 185.759995 5.771 185.921997 5.493999 186.518997 5.493999 C 187.494003 5.549 188.416 5.549 189.391998 5.493999 C 189.988007 5.438 190.151001 5.716 190.095993 6.326 C 190.151001 8.379 190.151001 10.375999 190.151001 12.373 Z M 198.281006 13.87 C 198.281006 11.43 198.335007 8.989 198.227005 6.548 C 198.227005 5.716 198.442993 5.493999 199.147995 5.493999 C 199.960999 5.549 200.774002 5.549 201.641998 5.493999 C 202.184006 5.438 202.401001 5.716 202.401001 6.381001 C 202.345993 10.264999 202.401001 14.203 202.401001 18.087 C 202.401001 19.197001 202.401001 19.197001 203.376007 19.197001 C 204.460007 19.197001 205.598999 19.252001 206.682999 19.197001 C 207.225006 19.141001 207.442001 19.306999 207.442001 20.028999 C 207.442001 22.136999 207.496002 22.136999 205.653 22.136999 L 199.201996 22.136999 C 198.281006 22.136999 198.281006 22.136999 198.227005 21.082001 C 198.281006 18.642 198.281006 16.256001 198.281006 13.871 Z M 178.766998 13.815 C 178.766998 11.375 178.820999 8.878 178.766998 6.437 C 178.766998 5.716 178.983002 5.438 179.634003 5.493999 C 180.610001 5.549 181.531006 5.549 182.453003 5.493999 C 182.886002 5.493999 183.102997 5.66 183.102997 6.159 L 183.102997 21.471001 C 183.102997 21.915001 182.940994 22.136999 182.561005 22.080999 C 181.549759 22.02549 180.53624 22.02549 179.524994 22.080999 C 178.875 22.136999 178.820999 21.693001 178.820999 21.194 C 178.766998 18.753 178.766998 16.312 178.766998 13.815 Z M 121.998001 13.981 C 121.998001 15.424 121.998001 16.865999 121.347 18.198 C 120.045998 20.860001 117.011002 22.525 114.192001 22.136 C 111.697998 21.804001 109.639 20.639 108.5 18.142 C 108.012001 17.143999 107.958 16.034 107.958 14.925 C 107.903999 12.872 107.794998 10.764 108.824997 8.932999 C 109.639 7.602001 110.885002 6.548 112.348999 6.048 C 114.842003 5.160999 117.226997 5.438 119.396004 7.102001 C 121.129997 8.434 121.998001 10.32 121.998001 12.594 L 121.998001 13.981 Z M 117.607002 13.981 C 117.607002 12.761 117.499001 11.541 117.281998 10.32 C 117.065002 8.989 116.142998 8.1 115.058998 8.045 C 113.974998 7.99 113.108002 8.6 112.674004 9.987 C 111.969002 12.483 112.132004 15.091 112.566002 17.643 C 112.727997 18.753 113.432999 19.695 114.625999 19.862 C 115.872002 20.028 116.956001 19.141001 117.226997 17.642 C 117.499001 16.367001 117.607002 15.146 117.607002 13.982 Z M 138.692993 13.981 C 138.692993 15.424 138.692993 16.865999 138.042999 18.198 C 136.742004 20.860001 133.705994 22.525 130.886993 22.136 C 128.393997 21.804001 126.334 20.639 125.195 18.142 C 124.708 17.143999 124.653 16.034 124.653 14.925 C 124.598999 12.872 124.490997 10.764 125.521004 8.932999 C 126.334 7.602001 127.581001 6.548 129.044006 6.048 C 131.537994 5.160999 133.923004 5.438 136.091003 7.102001 C 137.826004 8.434 138.692993 10.32 138.692993 12.594 L 138.692993 13.981 Z M 134.302002 13.981 C 134.302002 12.761 134.194 11.541 133.977005 10.32 C 133.759995 8.989 132.839005 8.1 131.755005 8.045 C 130.669998 7.99 129.802994 8.6 129.369003 9.987 C 128.664993 12.483 128.826996 15.091 129.261002 17.643 C 129.423996 18.753 130.128006 19.695 131.320999 19.862 C 132.567993 20.028 133.651993 19.141001 133.923004 17.642 C 134.139999 16.367001 134.302002 15.202 134.302002 13.982 Z"/>
    <path id="path3" fill="#3d72a3" stroke="none" d="M 224.339005 20.951 C 225.278 19.464001 226.095993 18.073999 226.962997 16.708 C 227.492004 15.878 227.901993 15.781 228.744003 16.025 C 229.177002 16.171 229.393997 16.440001 229.322006 16.879 C 229.226593 17.557875 229.106171 18.233 228.960999 18.903 C 228.479004 21.219999 227.998001 23.513 227.539993 25.805 C 227.492004 26 227.516006 26.268 227.589005 26.462999 C 227.828995 26.927 227.589005 27 227.203995 27 C 226.602005 27 226.216995 26.683001 226.289001 26.049 C 226.408997 24.854 226.578003 23.659 226.817993 22.488001 C 227.106995 21.049 227.492004 19.658001 227.828995 18.219999 C 227.852997 18.073999 227.828995 17.927 227.709 17.708 C 227.516006 17.976 227.300003 18.219999 227.154999 18.513 C 226.432999 19.854 225.710999 21.219999 224.988998 22.586 C 224.796997 22.927 224.651993 23.316999 224.147003 23.219999 C 223.664993 23.122 223.304001 22.951 223.207993 22.365999 C 223.087997 21.561001 222.871002 20.781 222.606003 20 C 221.908005 22 221.330002 24.024 221.186005 26.146 C 220.319 26.389999 219.813995 26.024 220.007004 25.122 C 220.367996 23.292 220.800995 21.488001 221.233994 19.659 C 221.475006 18.635 221.740005 17.610001 222.052994 16.610001 C 222.100998 16.415001 222.389999 16.122999 222.533997 16.146999 C 222.774994 16.195999 223.087997 16.367001 223.231995 16.586 C 223.953995 17.683001 223.858002 18.976 224.123001 20.195999 C 224.218994 20.438999 224.266998 20.659 224.339005 20.951 Z M 210.643005 17 C 210.257996 17.586 209.848999 18.146999 209.487 18.732 C 208.548996 20.341999 207.682007 22 207.296997 23.83 C 207.153 24.440001 206.983994 25.195 207.514008 25.511999 C 207.826996 25.683001 208.597 25.341999 208.981995 25.025 C 209.751999 24.365999 210.425995 23.584999 211.100006 22.805 C 211.485001 22.365999 211.798004 22.268999 212.279999 22.584999 C 212.737 22.903 212.472 23.219999 212.279999 23.513 C 211.365005 24.805 210.306 25.927 208.740997 26.365999 C 207.080002 26.829 205.636002 25.586 205.949005 23.878 C 206.455002 20.976 207.802994 18.513 209.679993 16.294001 C 210.210007 15.684 210.811005 15.562 211.412994 15.854 C 211.966995 16.098 212.328003 16.781 212.207001 17.537001 C 212.063004 18.341999 211.845993 19.122999 211.654007 19.903 C 211.630005 20.000999 211.606003 20.122999 211.533005 20.171 C 211.292999 20.365999 211.028 20.513 210.787003 20.683001 C 210.690994 20.415001 210.498001 20.122999 210.522003 19.879 C 210.619003 19.146999 210.811005 18.438999 210.932007 17.732 C 210.979996 17.511999 210.932007 17.268999 210.932007 17.049 C 210.811005 17.049 210.738998 17.025 210.643005 17.000999 Z M 213.266998 23.732 C 213.604004 21.610001 214.373993 19.341999 215.962006 17.440001 C 216.539993 16.733 217.190002 16.635 217.888 17.073999 C 218.272995 17.318001 218.537994 17.586 218.490005 18.146999 C 218.442001 18.562 218.682007 19.000999 218.755005 19.440001 C 219.139999 21.757 218.466003 23.781 216.973007 25.537001 C 216.251007 26.391001 215.360992 26.635 214.445999 26.243999 C 213.651993 25.927 213.242996 25.146999 213.266998 23.732 Z M 217.720001 20.537001 C 217.623001 19.927 217.526993 19.316999 217.406998 18.708 C 217.358002 18.513 217.214005 18.341999 217.117996 18.148001 C 216.949005 18.294001 216.684998 18.391001 216.587997 18.586 C 215.984116 19.879841 215.414246 21.189291 214.878998 22.513 C 214.542007 23.365999 214.373993 24.268999 214.589996 25.195999 C 214.710999 25.683001 214.975998 25.732 215.337006 25.464001 C 215.529007 25.318001 215.722 25.171 215.865997 24.976 C 216.949005 23.708 217.598999 22.268999 217.720001 20.537001 Z M 204.554001 26.365999 C 203.783005 26.341 203.397995 26.049 203.445999 25.610001 C 203.494995 25.219999 203.686996 24.780001 204.072006 24.927 C 204.432999 25.049 204.746002 25.462999 204.987 25.805 C 205.035004 25.854 204.649994 26.219 204.554001 26.365 Z"/>
</svg>
