<svg width="500" height="58" viewBox="0 0 500 58" xmlns="http://www.w3.org/2000/svg" xmlns:xlink="http://www.w3.org/1999/xlink">
    <path id="Path" fill="#3d72a3" fill-rule="evenodd" stroke="none" d="M 14.1 8.535999 C 14.611013 7.764187 15.179633 7.032101 15.801 6.346001 C 16.948 5.09 18.148001 4.200001 19.287001 3.822998 C 20.333 3.477001 21.393999 3.533001 22.559 4.319 C 23.573 5.002998 24.735001 6.292999 25.934999 8.535999 L 14.1 8.535999 Z M 9.88 8.535999 C 10.698 7.013 11.806 5.348999 13.128 3.902 C 14.49 2.411999 16.190001 1.033001 18.15 0.384998 C 20.202999 -0.293999 22.441 -0.130001 24.584999 1.317001 C 26.580999 2.664001 28.372 5.036999 29.972 8.535999 L 35.387001 8.535999 L 39.834 41.126999 L -0 41.126999 L 4.35 8.535999 L 9.88 8.535999 Z"/>
    <path id="path1" fill="#112133" fill-rule="evenodd" stroke="none" d="M 32.476002 19.400002 C 32.848999 18.678001 33.27 17.970001 33.722 17.334 C 34.564999 16.152 35.380001 15.416 36.049 15.132999 C 36.348999 15.005001 36.584999 14.983002 36.786999 15.015999 C 36.991001 15.049 37.291 15.159 37.686001 15.500999 C 38.369999 16.093002 39.209 17.273003 40.092999 19.400002 L 32.476002 19.400002 Z M 28.476 19.400002 C 29.059999 18.029999 29.841 16.542 30.773001 15.233002 C 31.756001 13.853001 33.049 12.472 34.633999 11.799 C 35.459999 11.449001 36.388 11.281998 37.368 11.442001 C 38.347 11.600998 39.248001 12.062 40.056 12.763 C 41.550999 14.057999 42.838001 16.257 43.976002 19.399002 L 47.866001 19.399002 L 51.216 48.368999 L 21.209999 48.368999 L 24.488001 19.399002 L 28.475 19.399002 Z M 25.264999 44.749001 L 27.722 23.021 L 44.639999 23.021 L 47.152 44.749001 L 25.264 44.749001 Z"/>
    <path id="path2" fill="#112133" stroke="none" d="M 354.803009 31.544001 C 354.920013 31.424999 355.037994 31.187 355.156006 30.948999 C 355.423157 30.421303 355.621124 29.861349 355.744995 29.283001 C 355.863007 28.688 355.980988 27.973 356.098999 27.379 C 356.334991 26.069 356.687988 24.878998 356.924011 23.569 L 358.338013 16.785999 C 358.574005 15.596001 358.455994 14.285999 358.338013 13.096001 C 358.220001 12.144001 358.455994 11.785999 359.39801 11.785999 C 361.990997 11.785999 364.700989 11.667999 367.294006 11.905998 C 367.765015 11.905998 368.589996 12.738998 368.825989 13.215 C 369.885986 17.974998 370.82901 22.855 371.890015 27.735001 C 372.006989 28.450001 372.243011 29.165001 372.360992 29.878 C 372.479004 30.354 372.596985 30.711 372.596985 31.188 C 372.596985 31.426001 372.713989 31.664 373.067993 31.664 C 373.303986 31.664 373.303986 31.424999 373.303986 31.187 C 373.421997 30.948999 373.421997 30.591999 373.539001 30.354 C 373.657013 29.759001 373.774994 29.164 373.893005 28.688 C 374.128998 27.497999 374.481995 26.308001 374.717987 25.118 C 375.542999 21.307999 376.368011 17.5 377.075012 13.810001 C 377.309998 12.382 378.016998 11.786999 379.549011 11.905998 C 380.846008 12.025002 382.26001 11.905998 383.791992 11.905998 C 382.96701 15.952 382.26001 19.523003 381.434998 22.974998 C 379.903015 30.355 378.252991 37.615002 376.721008 45.112999 C 376.368011 46.779999 375.778015 47.731998 373.893005 47.493 C 371.653992 47.256001 369.53299 47.375 367.411987 47.493 C 366.233002 47.612999 365.526001 47.256001 365.40799 45.945999 C 364.583008 41.900002 363.759003 37.853001 362.81601 33.806 L 362.462006 32.377998 C 362.343994 32.139999 362.343994 31.902 362.22699 31.664 C 362.22699 31.544001 362.109009 31.187 361.872986 31.187 C 361.519989 31.187 361.636993 31.544001 361.519989 31.783001 C 361.519989 32.021 361.402008 32.139999 361.402008 32.377998 C 361.283997 32.735001 361.283997 33.091999 361.165985 33.568001 C 361.048004 34.282001 360.812988 35.115002 360.695007 35.828999 L 359.988007 39.042999 C 359.515991 41.423 359.045013 43.923 358.455994 46.303001 C 358.338013 46.779999 357.631012 47.493 357.158997 47.493 C 354.330994 47.612999 351.502991 47.612999 348.674988 47.493 C 348.20401 47.493 347.496002 46.898998 347.378998 46.423 C 345.846985 39.757 344.433014 33.091999 343.019012 26.426001 C 342.194 22.379997 341.368988 18.452 340.425995 14.405998 C 339.954987 12.144001 339.954987 11.905998 342.311005 11.905998 L 348.792999 11.905998 C 349.971008 11.905998 350.559998 12.144001 350.79599 13.571999 C 351.266998 15.952 351.739014 18.214001 352.209991 20.594002 L 353.623993 27.736 C 353.859985 29.045 354.213013 30.236 354.449005 31.544001 L 354.449005 31.664 C 354.684998 31.544001 354.803009 31.544001 354.803009 31.544001 Z M 124.658997 29.521 C 124.658997 34.757999 124.541 39.994999 124.658997 45.231998 C 124.658997 46.898998 124.07 47.493999 122.419998 47.493999 C 120.379066 47.375 118.332932 47.375 116.292 47.493999 C 115.113998 47.612999 114.760002 47.018002 114.760002 45.827 C 114.877998 42.019001 114.641998 38.209999 114.877998 34.401001 C 114.877998 32.973 114.525002 32.377998 112.992996 32.377998 C 111.738823 32.497066 110.476181 32.497066 109.222 32.377998 C 107.690002 32.257999 107.335999 32.973 107.454002 34.401001 C 107.571999 38.091 107.454002 41.780998 107.571999 45.471001 C 107.571999 46.898998 107.218002 47.493999 105.686996 47.493999 C 103.527969 47.374969 101.364029 47.374969 99.205002 47.493999 C 98.144997 47.493999 97.672997 47.256001 97.672997 45.945999 L 97.672997 13.334 C 97.672997 12.144001 98.144997 11.786999 99.205002 11.786999 C 101.444 11.905998 103.682999 11.905998 105.804001 11.786999 C 106.983002 11.786999 107.454002 12.263 107.335999 13.571999 C 107.218002 17.381001 107.335999 21.188999 107.218002 24.998001 C 107.218002 26.546 107.571999 27.021999 109.103996 26.903 C 110.358177 26.783934 111.620819 26.783934 112.875 26.903 C 114.406998 27.021999 114.760002 26.308001 114.641998 24.878998 C 114.525002 21.188999 114.760002 17.499001 114.525002 13.810001 C 114.525002 12.382 114.996002 11.786999 116.528 11.786999 C 118.649002 11.905998 120.769997 11.905998 122.773003 11.786999 C 124.07 11.667 124.541 12.263 124.541 13.571999 C 124.658997 18.928001 124.658997 24.284 124.658997 29.521999 Z M 307.04599 29.639999 C 307.04599 24.403 307.162994 19.166 307.04599 13.810001 C 307.04599 12.263 307.516998 11.786999 309.049011 11.786999 C 313.763 11.905998 318.593994 11.549 323.308014 12.025002 C 329.434998 12.619999 334.738007 15.952 336.97699 21.903999 C 337.802002 24.165001 337.566986 26.546 337.68399 28.806999 C 337.802002 32.616001 337.802002 36.543999 335.799011 39.876999 C 334.024719 42.631138 331.426758 44.755291 328.375 45.946999 C 327.667999 46.183998 327.07901 46.422001 326.372009 46.660999 C 324.368011 47.137001 322.247009 47.256001 320.126007 47.375 C 316.709015 47.493999 313.173004 47.375 309.756012 47.375 C 307.162994 47.375 307.164001 47.375 307.164001 44.756001 C 307.04599 39.638 307.04599 34.639 307.04599 29.639999 Z M 317.179993 29.521 C 317.179993 32.497002 317.062012 35.472 317.062012 38.448002 C 317.062012 39.280998 316.944 41.780998 318.122986 42.138 C 322.247009 43.446999 326.372009 40.948002 326.725006 36.782001 C 327.196014 32.497002 327.313995 28.091999 326.842987 23.688999 C 326.372009 18.333 324.132996 16.785999 318.712006 16.904999 C 317.298004 16.904999 316.825989 17.381001 316.825989 18.808998 C 317.179993 22.261002 317.179993 25.831001 317.179993 29.521 Z M 160.923004 29.878 C 160.923004 32.973 160.923004 36.068001 159.509003 38.924 C 156.679993 44.637001 150.080994 48.208 143.953995 47.374001 C 138.533005 46.66 134.054993 44.160999 131.580002 38.804001 C 130.520004 36.661999 130.401993 34.282001 130.401993 31.900999 C 130.283997 27.497999 130.048004 22.974998 132.287003 19.047001 C 134.054993 16.190002 136.764999 13.929001 139.947006 12.857002 C 145.367996 10.952999 150.552994 11.548 155.266006 15.118999 C 159.037003 17.975998 160.923004 22.023003 160.923004 26.903 L 160.923004 29.878 Z M 151.378006 29.878 C 151.376541 27.243801 151.139603 24.615005 150.669998 22.023003 C 150.199005 19.166 148.195999 17.262001 145.839005 17.142998 C 143.481995 17.023003 141.597 18.333 140.654007 21.307999 C 139.121994 26.664 139.475998 32.257999 140.417999 37.734001 C 140.772003 40.113998 142.304001 42.138 144.895996 42.493999 C 147.606995 42.852001 149.962997 40.946999 150.552994 37.734001 C 151.141998 34.995998 151.378006 32.497002 151.378006 29.878 Z M 227.973999 23.450001 C 224.675003 23.450001 221.729004 23.57 218.783005 23.332001 C 217.839996 23.332001 217.487 20.952 217.251007 20.356003 C 216.662003 18.928001 215.600998 17.737999 214.186996 17.142998 C 210.886993 15.952999 207.587997 18.212997 206.880997 22.141998 C 205.938004 27.26 206.056 32.258999 206.880997 37.376999 C 207.352005 40.471001 210.063004 42.613998 213.009003 42.257 C 215.718994 42.019001 218.076004 39.042999 218.076004 36.187 C 218.076004 34.997002 217.369003 34.997002 216.544006 35.115002 C 215.130005 35.235001 214.776001 34.52 214.776001 33.210999 C 214.893997 28.330999 214.304993 29.164 218.664993 29.164 C 221.257004 29.045 223.968002 29.045 226.559998 29.284 C 227.149994 29.284 227.973999 29.878 227.973999 30.235001 C 228.091995 33.924999 228.328003 37.615002 225.970993 40.827999 C 222.436005 45.708 217.487 47.851002 211.593994 47.612999 C 207.587997 47.493 203.580994 45.945999 200.516998 43.327999 C 198.985992 42.018002 197.807007 40.471001 196.981995 38.567001 C 196.156998 36.543999 196.156998 34.52 196.156998 32.258999 C 196.156998 29.045 196.039001 25.711998 196.628998 22.499001 C 197.570999 17.499001 201.460007 14.642998 206.173996 12.858002 C 212.537003 10.478001 220.432999 12.263 224.910995 17.262001 C 226.559998 18.928001 227.621002 20.952 227.973999 23.451 Z M 66.328003 35.591 C 68.447998 35.472 70.452003 35.710999 70.922997 38.091 C 71.748001 41.423 76.108002 43.09 79.172997 41.542 C 82.117996 39.994999 82.353996 36.661999 79.407997 35.115002 C 77.051003 33.924999 74.575996 33.210999 72.101997 32.258999 C 70.216003 31.544001 68.331001 30.83 66.681999 29.879 C 61.259998 26.426001 60.789001 19.403999 65.737999 15.238998 C 71.513 10.359001 80.468002 10.359001 86.242996 15.118999 C 88.246002 16.666 89.306999 18.808998 89.778 21.308998 C 90.014 22.378998 89.660004 23.094002 88.599998 23.212997 C 87.068001 23.332001 85.064003 23.451 83.531998 23.212997 C 82.353996 23.093002 81.764999 22.141998 81.647003 20.951 C 81.056999 17.618999 78.464996 16.191002 75.166 16.904999 C 73.398003 17.262001 72.220001 18.333 71.865997 20.118 C 71.629997 21.903999 72.337997 23.332001 73.870003 24.045998 C 75.873001 24.998001 77.994003 25.593002 80.114998 26.188 C 82.943001 27.021999 85.771004 28.093 87.892998 30.354 C 91.073997 33.687 91.428001 38.091 88.599998 41.780998 C 85.181999 46.183998 80.349998 47.730999 74.93 47.256001 C 69.390999 46.66 64.913002 44.279999 62.674999 38.805 C 62.438999 38.328999 62.438999 37.853001 62.202999 37.376999 C 61.966999 36.187 62.556999 35.948002 63.617001 35.828999 C 64.442001 35.828999 65.385002 35.709999 66.327003 35.591 Z M 166.815002 29.76 C 166.815002 24.521999 166.932999 19.285 166.697006 14.048 C 166.578995 12.144001 167.285995 11.667999 168.936005 11.786999 C 173.296005 11.905998 177.656006 11.905998 182.016006 11.905998 C 188.615005 11.905998 191.796997 17.5 191.326004 22.856003 C 190.972 27.615999 186.141006 32.377998 181.544998 32.616001 C 180.290817 32.735065 179.028183 32.735065 177.774002 32.616001 C 176.595993 32.495998 176.242004 33.091999 176.242004 34.282001 C 176.360001 38.091 176.242004 42.019001 176.360001 45.827 C 176.360001 47.137001 176.005997 47.612999 174.710007 47.493999 C 172.630035 47.374977 170.544968 47.374977 168.464996 47.493999 C 167.167999 47.612999 166.815002 47.018002 166.815002 45.708 L 166.815002 29.76 Z M 176.360001 22.499001 C 176.360001 23.451 176.242004 24.521999 176.477997 25.473999 C 176.595993 25.951 176.830994 26.546 177.184998 26.784 C 178.244995 27.379 181.074005 26.308001 182.134003 25.117001 C 183.195007 23.807999 183.548004 22.379997 182.841003 20.832001 C 182.016006 19.166 180.483994 18.332001 178.716995 18.214001 C 176.830994 17.975998 176.477997 18.333 176.477997 20.237 C 176.360001 20.832001 176.360001 21.666 176.360001 22.499001 Z M 413.369995 26.546 L 413.369995 38.328999 C 413.369995 41.185001 413.369995 41.185001 415.962006 41.185001 C 418.554993 41.185001 421.028992 41.305 423.622009 41.185001 C 424.682007 41.185001 425.036011 41.542999 425.036011 42.733002 C 425.272003 47.493 425.270996 47.493 420.794006 47.493 C 415.726013 47.493 410.658997 47.375 405.59201 47.493 C 404.178009 47.493 403.824005 47.018002 403.824005 45.589001 C 403.941986 34.995998 403.941986 24.284 403.824005 13.691002 C 403.824005 12.381001 404.178009 11.786999 405.473999 11.786999 C 407.595001 11.905998 409.598999 11.905998 411.720001 11.786999 C 413.015991 11.667 413.369995 12.263 413.252014 13.571999 C 413.369995 17.975998 413.369995 22.261002 413.369995 26.546 Z M 431.04599 29.76 C 431.04599 24.521999 431.162994 19.285 430.928009 14.048 C 430.928009 12.263 431.398987 11.786999 432.931 11.786999 C 434.699005 11.905998 436.466003 11.905998 438.35199 11.786999 C 439.529999 11.667 440.002014 12.263 440.002014 13.691002 C 439.884003 22.023003 440.002014 30.473 440.002014 38.805 C 440.002014 41.185001 440.002014 41.185001 442.122986 41.185001 C 444.480011 41.185001 446.95401 41.305 449.311005 41.185001 C 450.489014 41.066002 450.960999 41.423 450.960999 42.971001 C 450.960999 47.493999 451.07901 47.493999 447.071991 47.493999 L 433.049011 47.493999 C 431.04599 47.493999 431.04599 47.493999 430.928009 45.231998 C 431.04599 39.994999 431.04599 34.876999 431.04599 29.759001 Z M 388.622986 29.639999 C 388.622986 24.403 388.740997 19.047001 388.622986 13.810001 C 388.622986 12.263 389.093994 11.667 390.509003 11.785999 C 392.549591 11.905025 394.595398 11.905025 396.635986 11.785999 C 397.57901 11.785999 398.049988 12.142998 398.049988 13.215 L 398.049988 46.064999 C 398.049988 47.018002 397.696991 47.493999 396.872009 47.375 C 394.67395 47.255978 392.471069 47.255978 390.27301 47.375 C 388.859009 47.493999 388.740997 46.541 388.740997 45.470001 C 388.622986 40.233002 388.622986 34.995998 388.622986 29.639999 Z M 265.212006 29.997 C 265.212006 33.091999 265.212006 36.187 263.798004 39.042999 C 260.970001 44.756001 254.371002 48.327 248.242996 47.493 C 242.822006 46.779999 238.343994 44.279999 235.869995 38.924 C 234.809006 36.782001 234.690994 34.401001 234.690994 32.021 C 234.574005 27.617001 234.337997 23.094002 236.576996 19.166 C 238.343994 16.308998 241.054993 14.048 244.235992 12.975998 C 249.656998 11.071999 254.841995 11.667 259.556 15.237999 C 263.326996 18.095001 265.212006 22.141998 265.212006 27.021999 L 265.212006 29.997 Z M 255.667007 29.997 C 255.667007 27.379 255.431 24.760002 254.960007 22.141998 C 254.488998 19.285 252.485001 17.381001 250.128998 17.262001 C 247.772003 17.141998 245.886002 18.452 244.944 21.427002 C 243.412003 26.784 243.764999 32.376999 244.707993 37.853001 C 245.061005 40.233002 246.593002 42.257 249.186005 42.612999 C 251.895996 42.971001 254.253006 41.066002 254.841995 37.853001 C 255.431 35.115002 255.667007 32.497002 255.667007 29.997 Z M 301.506989 29.997 C 301.506989 33.091999 301.506989 36.187 300.092987 39.042999 C 297.265015 44.756001 290.665985 48.327 284.537994 47.493 C 279.117004 46.779999 274.639008 44.279999 272.165009 38.924 C 271.104004 36.782001 270.985992 34.401001 270.985992 32.021 C 270.868011 27.617001 270.632996 23.094002 272.872009 19.166 C 274.639008 16.308998 277.350006 14.048 280.531006 12.975998 C 285.951996 11.071999 291.136993 11.667 295.851013 15.237999 C 299.622009 18.095001 301.506989 22.141998 301.506989 27.021999 L 301.506989 29.997 Z M 291.962006 29.997 C 291.962006 27.379 291.726013 24.760002 291.255005 22.141998 C 290.783997 19.285 288.779999 17.381001 286.423004 17.262001 C 284.066986 17.141998 282.181 18.452 281.238007 21.427002 C 279.707001 26.784 280.059998 32.376999 281.002991 37.853001 C 281.355988 40.233002 282.888 42.257 285.480988 42.612999 C 288.19101 42.971001 290.548004 41.066002 291.136993 37.853001 C 291.608002 35.115002 291.962006 32.616001 291.962006 29.997 Z"/>
    <path id="path3" fill="#3d72a3" stroke="none" d="M 487.692993 44.952 C 489.734009 41.759998 491.513 38.777 493.397003 35.847 C 494.548004 34.067001 495.437988 33.858002 497.269012 34.382 C 498.210999 34.695999 498.682007 35.271999 498.524994 36.213001 C 498.318848 37.670155 498.056976 39.118881 497.73999 40.556 C 496.692993 45.527 495.647003 50.445999 494.653015 55.363998 C 494.548004 55.783001 494.600006 56.359001 494.756989 56.777 C 495.281006 57.771 494.756989 57.928001 493.920013 57.928001 C 492.612 57.928001 491.774994 57.248001 491.932007 55.888 C 492.192993 53.324001 492.559998 50.759998 493.083008 48.248001 C 493.710999 45.160999 494.548004 42.178001 495.281006 39.091 C 495.333008 38.777 495.281006 38.463001 495.019012 37.992001 C 494.600006 38.568001 494.128998 39.091 493.815002 39.719002 C 492.246002 42.597 490.675995 45.527 489.105988 48.457001 C 488.687988 49.189999 488.373993 50.027 487.274994 49.817001 C 486.227997 49.608002 485.442993 49.242001 485.234009 47.987 C 484.971985 46.259998 484.501007 44.584999 483.925995 42.910999 C 482.40799 47.201 481.153015 51.543999 480.838989 56.097 C 478.954987 56.619999 477.855988 55.834999 478.274994 53.898998 C 479.059998 49.974998 480.001007 46.103001 480.942993 42.179001 C 481.46701 39.98 482.041992 37.783001 482.721985 35.638 C 482.826996 35.217999 483.454987 34.591 483.769012 34.643002 C 484.291992 34.748001 484.971985 35.113998 485.286011 35.584999 C 486.855988 37.939999 486.647003 40.713001 487.221985 43.328999 C 487.432007 43.853001 487.536011 44.324001 487.692993 44.952 Z M 457.920013 36.474998 C 457.083008 37.730999 456.192993 38.935001 455.40799 40.189999 C 453.368011 43.644001 451.484009 47.202 450.647003 51.125999 C 450.333008 52.433998 449.966003 54.056 451.118011 54.736 C 451.798004 55.103001 453.471985 54.369999 454.30899 53.689999 C 455.984009 52.277 457.449005 50.603001 458.914001 48.928001 C 459.751007 47.987 460.432007 47.778 461.477997 48.458 C 462.471985 49.138 461.897003 49.818001 461.477997 50.445999 C 459.48999 53.219002 457.187012 55.625999 453.786011 56.568001 C 450.175995 57.562 447.036011 54.894001 447.716003 51.230999 C 448.815002 45.004002 451.744995 39.719002 455.826996 34.957001 C 456.977997 33.648998 458.286011 33.387001 459.593994 34.015999 C 460.798004 34.539001 461.583008 36.004002 461.321014 37.625999 C 461.006989 39.353001 460.536011 41.027 460.118011 42.702 C 460.065002 42.910999 460.013 43.172001 459.855988 43.277 C 459.333008 43.695999 458.756989 44.009998 458.234009 44.375999 C 458.024994 43.799999 457.605988 43.173 457.65799 42.648998 C 457.868011 41.078999 458.286011 39.562 458.548004 38.044998 C 458.652008 37.574001 458.548004 37.049999 458.548004 36.580002 C 458.286011 36.580002 458.128998 36.527 457.920013 36.474998 Z M 463.623993 50.917 C 464.355988 46.365002 466.029999 41.498001 469.484009 37.417 C 470.73999 35.900002 472.153015 35.689999 473.670013 36.632 C 474.506989 37.154999 475.083008 37.730999 474.977997 38.933998 C 474.873993 39.824001 475.397003 40.765999 475.553986 41.708 C 476.390991 46.678001 474.925995 51.021999 471.682007 54.789001 C 470.112 56.619999 468.175995 57.144001 466.187012 56.306999 C 464.460999 55.626999 463.571014 53.952 463.623993 50.917 Z M 473.303986 44.062 C 473.093994 42.754002 472.88501 41.445999 472.623993 40.138 C 472.519012 39.719002 472.204987 39.353001 471.996002 38.933998 C 471.628998 39.248001 471.053986 39.458 470.843994 39.875999 C 469.530518 42.650585 468.291718 45.45993 467.128998 48.300999 C 466.397003 50.132 466.031006 52.068001 466.501007 54.056999 C 466.763 55.103001 467.338989 55.207001 468.123993 54.632 C 468.541992 54.318001 468.960999 54.004002 469.274994 53.585999 C 471.628998 50.865002 473.041992 47.778 473.303986 44.062 Z M 444.682007 56.568001 C 443.006989 56.514999 442.170013 55.888 442.274994 54.945 C 442.378998 54.108002 442.798004 53.166 443.63501 53.48 C 444.420013 53.742001 445.100006 54.632 445.622986 55.363998 C 445.727997 55.469002 444.890991 56.254002 444.682007 56.568001 Z"/>
</svg>
